<svg xmlns="http://www.w3.org/2000/svg" width="81" height="12" viewBox="0 0 81 12" fill="none">
  <path fill-rule="evenodd" clip-rule="evenodd"
    d="M75.9616 4.71237C78.8719 4.71237 80.3271 5.74735 80.3271 7.81932C80.3271 10.298 78.6632 11.5376 75.3353 11.5376L64.5351 11.5222L66.8132 8.61719H75.6139C76.4369 8.61719 76.849 8.3399 76.849 7.78533C76.849 7.24183 76.4369 6.97109 75.6139 6.97109H69.283C67.8336 6.97109 66.7322 6.67064 65.9789 6.0701C65.2713 5.51565 64.9178 4.72937 64.9178 3.71039C64.9178 1.35559 66.5814 0.178691 69.9091 0.178691H80.014L77.7012 3.13302H69.6313C68.8077 3.13302 68.3963 3.39318 68.3963 3.91376C68.3963 4.44592 68.8077 4.71237 69.6313 4.71237H75.9616ZM63.5208 6.5801C63.5208 10.0094 61.1035 11.7248 56.2682 11.7248C53.4857 11.7248 51.445 11.2939 50.146 10.434C48.8826 9.60759 48.251 8.32277 48.251 6.5801V0.178186H51.8336V6.5801C51.8336 7.44029 52.112 8.02332 52.6685 8.32882C53.2484 8.64539 54.4481 8.80444 56.2682 8.80444C57.6365 8.80444 58.5874 8.63419 59.1209 8.29482C59.6425 7.96703 59.9034 7.39508 59.9034 6.5801V0.178186H63.5208V6.5801ZM47.2193 0.178186L43.5498 3.45577C42.2508 4.59917 41.387 5.33444 40.9586 5.66311C41.2134 5.8326 42.1524 6.65263 43.7757 8.12507L47.4974 11.5376H42.4191L38.4537 7.78533L34.3667 11.5376H29.897L33.6882 8.12507C35.045 6.90221 35.9493 6.12739 36.4014 5.79835L36.2448 5.68011C36.1522 5.61223 36.0886 5.56123 36.0539 5.52749C35.9377 5.43657 35.7752 5.30057 35.5667 5.11974C35.1026 4.72358 34.4764 4.16321 33.6882 3.43864L30.1229 0.178186H35.1145L38.8189 3.71039L42.5584 0.178186H47.2193ZM29.4621 8.61706L27.149 11.5376H15.9486V0.178186H29.4271L27.0969 3.13302H19.5656V4.49075H28.7836L26.7139 7.07145H19.5656V8.61706H29.4621ZM3.26915 4.86474V11.5376H0V2.11416C0 1.40117 0.196834 0.857931 0.591273 0.484562C0.962108 0.156024 1.41988 -0.00805664 1.96497 -0.00805664C2.49885 -0.00805664 2.97932 0.195187 3.40884 0.602932L10.5391 6.85159V0.178186H13.8265V9.58517C13.8265 10.2982 13.6296 10.8414 13.235 11.2151C12.8754 11.5549 12.4118 11.7248 11.8438 11.7248C11.3217 11.7248 10.8408 11.5206 10.4003 11.1134L3.26915 4.86474Z"
    fill="currentColor" />
</svg>