<svg viewBox="0 0 16 17" fill="none" xmlns="http://www.w3.org/2000/svg">
  <path opacity="0.951" fill-rule="evenodd" clip-rule="evenodd"
    d="M6.60938 1.1407C7.58772 1.06475 8.33253 1.43975 8.84375 2.2657C9.07897 2.78172 9.1675 3.32338 9.10938 3.8907C9.41353 3.87848 9.71562 3.8941 10.0156 3.93757C10.3681 4.11592 10.5712 4.40235 10.625 4.79695C10.7778 5.79151 10.9288 6.78632 11.0781 7.78132C11.0809 8.01301 10.9663 8.14323 10.7344 8.17195C10.6153 8.1567 10.5163 8.1046 10.4375 8.0157C10.2501 6.91204 10.0626 5.80788 9.875 4.7032C9.83706 4.65479 9.79019 4.61835 9.73438 4.59382C9.52631 4.5782 9.31797 4.57301 9.10938 4.5782C9.11459 5.09913 9.10938 5.61998 9.09375 6.1407C8.98453 6.40117 8.80225 6.46888 8.54688 6.34382C8.46309 6.27526 8.41622 6.18673 8.40625 6.0782C8.39062 5.57829 8.38541 5.07829 8.39062 4.5782C7.41147 4.5782 6.43228 4.5782 5.45312 4.5782C5.45834 5.09913 5.45312 5.61998 5.4375 6.1407C5.32828 6.40117 5.146 6.46888 4.89062 6.34382C4.80684 6.27526 4.75997 6.18673 4.75 6.0782C4.73438 5.57829 4.72916 5.07829 4.73438 4.5782C4.53619 4.57301 4.33828 4.5782 4.14062 4.59382C4.03975 4.64267 3.97203 4.72079 3.9375 4.8282C3.50775 7.5241 3.10149 10.222 2.71875 12.9219C2.77499 12.9787 2.8427 13.0152 2.92188 13.0313C4.02603 13.0417 5.13022 13.0522 6.23438 13.0626C6.42153 13.1942 6.46841 13.3661 6.375 13.5782C6.32384 13.6504 6.25612 13.6973 6.17188 13.7188C5.03647 13.7397 3.90103 13.7397 2.76562 13.7188C2.29532 13.6392 2.0349 13.3631 1.98438 12.8907C2.40625 10.1511 2.82812 7.41154 3.25 4.67195C3.33334 4.27617 3.56772 4.02098 3.95312 3.90632C4.21334 3.8907 4.47375 3.88551 4.73438 3.8907C4.63734 3.07459 4.85609 2.36105 5.39062 1.75007C5.73988 1.42961 6.14612 1.22648 6.60938 1.1407ZM6.76562 1.8282C7.59978 1.82416 8.13625 2.21999 8.375 3.0157C8.39062 3.30718 8.39581 3.59884 8.39062 3.8907C7.41147 3.8907 6.43228 3.8907 5.45312 3.8907C5.44794 3.61966 5.45312 3.34883 5.46875 3.0782C5.62212 2.36746 6.05441 1.95079 6.76562 1.8282Z"
    fill="currentColor" />
  <path opacity="0.946" fill-rule="evenodd" clip-rule="evenodd"
    d="M10.2344 8.82816C11.7608 8.81244 12.891 9.46869 13.625 10.7969C14.227 12.2157 14.0395 13.5177 13.0625 14.7032C12.0509 15.7153 10.8478 16.0434 9.45312 15.6875C8.07287 15.203 7.25515 14.2394 7 12.7969C6.87443 11.2093 7.49421 10.0166 8.85937 9.21878C9.29931 9.00997 9.75765 8.87975 10.2344 8.82816ZM10.0781 9.54691C11.4633 9.45528 12.4581 10.0282 13.0625 11.2657C13.5241 12.6409 13.1855 13.7712 12.0469 14.6563C10.9322 15.3264 9.83846 15.2951 8.76562 14.5625C7.71387 13.6421 7.4274 12.5223 7.90625 11.2032C8.35681 10.2887 9.08078 9.73656 10.0781 9.54691Z"
    fill="currentColor" />
  <path opacity="0.936" fill-rule="evenodd" clip-rule="evenodd"
    d="M11.7031 10.9844C12.0859 10.9973 12.2161 11.1847 12.0937 11.5469C11.5052 12.2396 10.9166 12.9323 10.3281 13.625C10.1763 13.6941 10.0305 13.6837 9.89062 13.5938C9.53805 13.2374 9.18912 12.878 8.84374 12.5156C8.74458 12.1461 8.88521 11.9742 9.26562 12C9.30727 12.0208 9.34896 12.0417 9.39062 12.0625C9.63671 12.3034 9.8763 12.5482 10.1094 12.7969C10.5699 12.261 11.0231 11.7193 11.4687 11.1719C11.5348 11.09 11.6129 11.0275 11.7031 10.9844Z"
    fill="currentColor" />
</svg>